<svg width="24" height="24" viewBox="0 0 24 24" fill="none" xmlns="http://www.w3.org/2000/svg">
<path d="M16.6 20.9995L10.3 14.6995C9.8 15.0995 9.225 15.4162 8.575 15.6495C7.925 15.8828 7.23333 15.9995 6.5 15.9995C4.68333 15.9995 3.146 15.3702 1.888 14.1115C0.63 12.8528 0.000666667 11.3155 0 9.49951C0 7.68285 0.629333 6.14551 1.888 4.88751C3.14667 3.62951 4.684 3.00018 6.5 2.99951C8.31667 2.99951 9.854 3.62885 11.112 4.88751C12.37 6.14618 12.9993 7.68351 13 9.49951C13 10.2328 12.8833 10.9245 12.65 11.5745C12.4167 12.2245 12.1 12.7995 11.7 13.2995L18 19.5995L16.6 20.9995ZM6.5 13.9995C7.75 13.9995 8.81267 13.5618 9.688 12.6865C10.5633 11.8112 11.0007 10.7488 11 9.49951C11 8.24951 10.5623 7.18685 9.687 6.31151C8.81167 5.43618 7.74933 4.99885 6.5 4.99951C5.25 4.99951 4.18733 5.43718 3.312 6.31251C2.43667 7.18785 1.99933 8.25018 2 9.49951C2 10.7495 2.43767 11.8122 3.313 12.6875C4.18833 13.5628 5.25067 14.0002 6.5 13.9995Z" fill="black"/>
</svg>